<?xml version="1.0" standalone="no"?>
<!DOCTYPE svg PUBLIC "-//W3C//DTD SVG 20010904//EN"
 "http://www.w3.org/TR/2001/REC-SVG-20010904/DTD/svg10.dtd">
<svg version="1.0" xmlns="http://www.w3.org/2000/svg"
 width="700.000000pt" height="700.000000pt" viewBox="0 0 700.000000 700.000000"
 preserveAspectRatio="xMidYMid meet">
<metadata>
Created by potrace 1.14, written by Peter Selinger 2001-2017
</metadata>
<g transform="translate(0.000000,700.000000) scale(0.100000,-0.100000)"
fill="#000000" stroke="none">
<path d="M2514 6073 c-88 -87 -178 -174 -200 -194 -89 -80 -335 -278 -410
-329 -12 -8 -51 -35 -86 -60 -322 -231 -856 -526 -1225 -676 -40 -16 -73 -34
-73 -39 0 -9 41 -112 79 -200 5 -11 24 -56 42 -100 18 -44 36 -84 40 -89 8
-10 164 55 364 150 60 29 111 51 114 49 2 -2 4 -371 4 -819 l0 -815 894 1
c492 0 896 -2 898 -4 3 -3 -104 -182 -121 -203 -5 -6 -24 -33 -43 -60 -44 -64
-164 -217 -216 -275 -51 -57 -287 -294 -340 -340 -213 -188 -505 -392 -780
-545 -54 -30 -343 -175 -349 -175 -2 0 -37 -15 -78 -34 -150 -69 -388 -153
-623 -221 -33 -10 -61 -19 -62 -20 -3 -2 11 -80 32 -185 2 -14 7 -41 10 -60 4
-29 14 -75 20 -100 1 -3 5 -31 9 -63 l9 -59 36 7 c43 7 52 10 254 75 257 82
564 210 770 319 212 113 255 137 362 204 440 274 797 583 1116 967 136 164
317 444 422 655 55 108 56 109 91 110 20 1 37 -1 37 -4 1 -3 3 -433 4 -956 1
-667 5 -962 13 -989 18 -61 59 -113 113 -140 47 -23 56 -24 301 -26 139 -1
352 -4 473 -5 208 -3 844 -12 1460 -20 166 -2 295 0 318 6 48 13 109 67 130
116 9 21 30 85 47 143 18 58 42 139 55 180 12 41 35 116 50 165 15 50 40 133
55 185 16 52 52 169 79 260 28 90 48 166 46 168 -3 3 -377 162 -382 162 -1 0
-14 -39 -28 -87 -40 -134 -85 -281 -105 -348 -10 -33 -32 -105 -49 -160 -16
-55 -44 -147 -61 -203 l-31 -104 -512 7 c-282 3 -618 8 -747 10 -129 2 -364 4
-523 6 l-287 2 2 813 3 813 874 6 c481 3 877 8 880 11 3 3 6 442 6 975 l0 968
-419 1 c-230 0 -420 1 -422 2 -1 2 43 70 97 152 92 138 121 185 209 336 82
143 191 383 276 610 7 19 22 59 33 89 11 30 20 56 18 57 -1 1 -114 5 -252 8
-137 4 -297 9 -355 11 -58 2 -199 7 -315 10 -291 8 -510 14 -715 20 -96 3
-247 7 -335 10 -162 4 -387 11 -680 20 l-160 5 -161 -157z m671 -298 c219 -6
412 -12 675 -20 143 -4 383 -12 655 -20 61 -2 158 -4 218 -5 59 -1 107 -4 107
-5 0 -27 -237 -411 -339 -551 -15 -20 -17 -20 -166 54 -139 69 -491 233 -571
267 -34 14 -34 14 -48 -18 -8 -18 -26 -59 -41 -92 -15 -33 -33 -73 -40 -90 -7
-16 -29 -64 -48 -105 -31 -67 -33 -76 -18 -86 9 -6 75 -37 146 -69 72 -32 166
-75 209 -97 l80 -38 -1140 1 c-885 0 -1135 3 -1120 12 184 116 545 369 602
422 7 5 20 17 30 25 171 138 234 193 379 331 49 48 96 88 103 91 8 2 37 3 65
1 29 -1 147 -4 262 -8z"/>
<path d="M4911 2403 c-92 -121 -131 -180 -125 -188 5 -7 42 -50 82 -96 147
-169 232 -322 283 -509 25 -95 -3 -94 244 -16 196 62 181 41 138 196 -56 202
-164 413 -298 580 -80 99 -178 210 -185 209 -3 0 -65 -79 -139 -176z"/>
</g>
</svg>
